<?xml version="1.0" encoding="utf-8"?>
<!-- Generator: Adobe Illustrator 23.0.0, SVG Export Plug-In . SVG Version: 6.00 Build 0)  -->
<svg version="1.1" id="Livello_1" xmlns="http://www.w3.org/2000/svg" xmlns:xlink="http://www.w3.org/1999/xlink" x="0px" y="0px"
	 viewBox="0 0 17.7 31.9" style="enable-background:new 0 0 17.7 31.9;" xml:space="preserve">
<style type="text/css">
	.st0{fill:#FF0000;}
</style>
<title>pause</title>
<path class="st0" d="M3.1,0L3.1,0c1.7,0,3.1,1.4,3.1,3.1v25.7c0,1.7-1.4,3.1-3.1,3.1l0,0c-1.7,0-3.1-1.4-3.1-3.1V3.1
	C0,1.4,1.4,0,3.1,0z"/>
<path class="st0" d="M14.6,0L14.6,0c1.7,0,3.1,1.4,3.1,3.1v25.7c0,1.7-1.4,3.1-3.1,3.1l0,0c-1.7,0-3.1-1.4-3.1-3.1V3.1
	C11.4,1.4,12.8,0,14.6,0z"/>
</svg>
